<svg id="svg" version="1.1" xmlns="http://www.w3.org/2000/svg" xmlns:xlink="http://www.w3.org/1999/xlink" width="400" height="400" viewBox="0, 0, 400,400"><g id="svgg"><path id="path0" d="M125.000 70.400 C 124.864 70.620,124.482 70.800,124.150 70.800 C 123.430 70.800,119.200 74.870,119.200 75.563 C 119.200 75.829,119.020 75.936,118.800 75.800 C 118.580 75.664,118.400 75.913,118.400 76.353 C 118.400 76.793,118.220 77.264,118.000 77.400 C 117.739 77.561,117.600 88.517,117.600 108.962 C 117.600 143.896,117.334 140.684,120.400 142.808 C 121.170 143.342,121.980 143.923,122.200 144.100 C 122.420 144.276,125.030 146.221,128.000 148.421 C 130.970 150.622,133.670 152.644,134.000 152.917 C 134.330 153.189,135.230 153.850,136.000 154.386 C 136.770 154.923,137.490 155.469,137.600 155.600 C 137.710 155.731,138.430 156.271,139.200 156.800 C 139.970 157.329,140.690 157.869,140.800 158.000 C 140.910 158.131,141.630 158.677,142.400 159.214 C 143.170 159.750,144.070 160.415,144.400 160.691 C 144.730 160.968,148.510 163.814,152.800 167.015 C 162.604 174.331,162.820 174.495,163.435 175.100 C 163.714 175.375,164.136 175.600,164.371 175.600 C 164.607 175.600,164.800 175.741,164.800 175.914 C 164.800 176.086,165.333 176.543,165.985 176.928 C 166.637 177.313,167.402 177.854,167.685 178.131 C 167.968 178.408,168.942 179.167,169.848 179.817 C 171.683 181.134,177.866 185.767,178.800 186.525 C 179.130 186.792,180.030 187.456,180.800 188.000 C 186.674 192.148,188.400 194.873,188.400 200.001 C 188.400 201.766,188.241 203.523,188.047 203.905 C 187.852 204.287,187.464 205.090,187.185 205.689 C 186.318 207.546,184.428 209.256,177.800 214.177 C 174.280 216.791,171.310 219.044,171.200 219.184 C 171.090 219.324,170.370 219.874,169.600 220.406 C 168.830 220.938,167.968 221.598,167.685 221.873 C 167.402 222.147,166.637 222.687,165.985 223.072 C 165.333 223.457,164.800 223.914,164.800 224.086 C 164.800 224.259,164.607 224.400,164.371 224.400 C 164.136 224.400,163.714 224.625,163.435 224.900 C 163.155 225.175,162.403 225.791,161.763 226.269 C 141.364 241.507,128.916 250.823,128.600 251.087 C 128.380 251.271,127.570 251.858,126.800 252.392 C 126.030 252.925,125.310 253.469,125.200 253.600 C 125.090 253.731,124.370 254.271,123.600 254.800 C 122.830 255.329,122.110 255.869,122.000 256.000 C 121.890 256.131,121.170 256.671,120.400 257.200 C 117.316 259.319,117.600 254.690,117.600 302.838 C 117.600 331.150,117.737 346.038,118.000 346.200 C 118.220 346.336,118.400 346.757,118.400 347.135 C 118.400 347.514,118.760 348.083,119.200 348.400 C 119.640 348.717,120.000 349.167,120.000 349.400 C 120.000 349.633,120.385 350.088,120.855 350.412 C 121.326 350.735,122.127 351.405,122.637 351.900 C 123.147 352.395,123.831 352.800,124.158 352.800 C 124.485 352.800,124.864 352.980,125.000 353.200 C 125.470 353.961,234.665 353.730,234.957 352.967 C 235.273 352.145,235.265 288.789,234.934 167.500 L 234.667 70.000 179.957 70.000 C 143.915 70.000,125.163 70.136,125.000 70.400 M289.706 166.047 C 286.966 167.100,284.283 169.793,283.274 172.505 C 281.977 175.987,281.529 223.967,282.763 227.232 C 286.397 236.847,299.225 237.817,303.900 228.829 L 305.200 226.330 305.200 200.825 C 305.200 183.384,305.061 174.889,304.760 173.960 C 302.512 167.005,296.050 163.608,289.706 166.047 " stroke="none" fill="#264279" fill-rule="evenodd"></path><path id="path1" d="M78.200 118.000 C 78.336 118.220,78.067 118.400,77.602 118.400 C 77.137 118.400,76.181 118.939,75.478 119.598 C 74.775 120.257,73.975 120.797,73.700 120.798 C 73.425 120.799,73.200 121.120,73.200 121.512 C 73.200 121.903,72.840 122.483,72.400 122.800 C 71.960 123.117,71.600 123.697,71.600 124.088 C 71.600 124.480,71.420 124.800,71.200 124.800 C 70.939 124.800,70.800 131.667,70.800 144.600 L 70.800 164.400 39.528 164.400 C 4.021 164.400,6.668 164.143,2.800 167.960 L 0.200 170.526 0.200 200.029 L 0.200 229.533 1.100 230.313 C 1.595 230.743,2.000 231.258,2.000 231.459 C 2.000 231.659,2.385 232.088,2.855 232.412 C 3.326 232.735,4.127 233.405,4.637 233.900 C 5.147 234.395,5.831 234.800,6.158 234.800 C 6.485 234.800,6.864 234.980,7.000 235.200 C 7.161 235.461,18.271 235.600,39.024 235.600 L 70.800 235.600 70.800 255.400 C 70.800 268.333,70.939 275.200,71.200 275.200 C 71.420 275.200,71.600 275.520,71.600 275.912 C 71.600 276.303,71.960 276.883,72.400 277.200 C 72.840 277.517,73.200 278.020,73.200 278.317 C 73.200 278.981,73.857 279.623,75.300 280.368 C 75.905 280.680,76.400 281.085,76.400 281.268 C 76.400 281.450,76.760 281.600,77.200 281.600 C 77.640 281.600,78.000 281.780,78.000 282.000 C 78.000 282.244,79.859 282.400,82.776 282.400 C 85.529 282.400,87.658 282.231,87.800 282.000 C 87.936 281.780,88.357 281.600,88.735 281.600 C 89.114 281.600,89.683 281.240,90.000 280.800 C 90.317 280.360,90.735 280.000,90.928 280.000 C 91.121 280.000,91.783 279.460,92.400 278.800 C 93.017 278.140,93.737 277.600,94.000 277.600 C 94.263 277.600,94.983 277.060,95.600 276.400 C 96.217 275.740,96.966 275.200,97.265 275.200 C 97.564 275.200,98.293 274.750,98.887 274.200 C 99.480 273.650,100.126 273.200,100.323 273.200 C 100.520 273.200,101.246 272.660,101.937 272.000 C 102.628 271.340,103.348 270.800,103.537 270.800 C 103.726 270.800,104.446 270.260,105.137 269.600 C 105.828 268.940,106.502 268.400,106.636 268.400 C 106.770 268.400,107.383 267.860,108.000 267.200 C 108.617 266.540,109.337 266.000,109.600 266.000 C 109.863 266.000,110.583 265.460,111.200 264.800 C 111.817 264.140,112.537 263.600,112.800 263.600 C 113.063 263.600,113.783 263.060,114.400 262.400 C 115.017 261.740,115.732 261.200,115.989 261.200 C 116.653 261.200,117.600 260.169,117.600 259.446 C 117.600 258.947,123.691 254.058,129.747 249.697 C 130.436 249.201,131.270 248.568,131.600 248.292 C 131.930 248.015,132.830 247.350,133.600 246.814 C 134.370 246.277,135.090 245.732,135.200 245.602 C 135.380 245.389,141.278 240.979,152.000 233.041 C 154.090 231.494,155.890 230.123,156.000 229.994 C 156.110 229.866,156.830 229.329,157.600 228.800 C 158.370 228.271,159.090 227.731,159.200 227.600 C 159.310 227.469,160.030 226.929,160.800 226.400 C 161.570 225.871,162.290 225.331,162.400 225.200 C 162.510 225.069,163.230 224.523,164.000 223.986 C 164.770 223.450,165.670 222.787,166.000 222.513 C 166.330 222.239,170.380 219.207,175.000 215.777 C 186.858 206.971,188.000 205.624,188.000 200.440 C 188.000 193.897,189.644 195.412,151.681 166.964 C 118.476 142.081,117.600 141.401,117.600 140.497 C 117.600 139.821,116.630 138.800,115.989 138.800 C 115.732 138.800,115.017 138.260,114.400 137.600 C 113.783 136.940,113.063 136.400,112.800 136.400 C 112.537 136.400,111.817 135.860,111.200 135.200 C 110.583 134.540,109.863 134.000,109.600 134.000 C 109.337 134.000,108.617 133.460,108.000 132.800 C 107.383 132.140,106.770 131.600,106.636 131.600 C 106.502 131.600,105.828 131.060,105.137 130.400 C 104.446 129.740,103.720 129.200,103.522 129.200 C 103.325 129.200,102.714 128.750,102.164 128.200 C 101.614 127.650,101.019 127.200,100.843 127.200 C 100.561 127.200,99.949 126.753,98.117 125.207 C 97.851 124.983,97.428 124.800,97.177 124.800 C 96.926 124.800,96.217 124.260,95.600 123.600 C 94.983 122.940,94.263 122.400,94.000 122.400 C 93.737 122.400,93.017 121.860,92.400 121.200 C 91.783 120.540,91.081 120.000,90.840 120.000 C 90.598 120.000,90.400 119.853,90.400 119.674 C 90.400 119.495,89.663 118.955,88.762 118.474 C 86.980 117.523,77.646 117.104,78.200 118.000 " stroke="none" fill="#fbcb17" fill-rule="evenodd"></path><path id="path2" d="M234.590 41.000 C 234.590 57.060,234.639 63.572,234.700 55.471 C 234.760 47.369,234.760 34.229,234.700 26.271 C 234.639 18.312,234.590 24.940,234.590 41.000 M235.200 276.613 C 235.200 344.344,235.130 353.252,234.600 353.455 C 233.892 353.727,233.675 387.513,234.377 388.220 C 234.585 388.429,234.796 389.536,234.848 390.680 C 234.899 391.824,235.089 392.668,235.271 392.556 C 235.452 392.444,235.600 392.723,235.600 393.176 C 235.600 393.629,235.791 394.000,236.024 394.000 C 236.257 394.000,236.345 394.166,236.219 394.369 C 235.953 394.799,239.730 398.800,240.403 398.800 C 240.653 398.800,241.102 399.045,241.402 399.345 C 242.350 400.293,253.958 400.103,253.369 399.149 C 253.250 398.957,253.328 398.800,253.543 398.800 C 253.758 398.800,254.024 399.025,254.135 399.300 C 254.296 399.700,254.343 399.700,254.368 399.300 C 254.386 399.025,254.670 398.800,255.000 398.800 C 255.330 398.800,255.600 398.643,255.600 398.450 C 255.600 398.257,256.088 398.100,256.683 398.100 C 257.279 398.100,257.834 397.898,257.917 397.650 C 257.999 397.403,258.581 397.200,259.210 397.200 C 259.838 397.200,260.464 397.020,260.600 396.800 C 260.736 396.580,261.366 396.400,262.000 396.400 C 262.634 396.400,263.264 396.220,263.400 396.000 C 263.536 395.780,263.997 395.600,264.424 395.600 C 264.851 395.600,265.200 395.459,265.200 395.287 C 265.200 395.015,266.153 394.807,267.900 394.698 C 268.175 394.681,268.400 394.561,268.400 394.431 C 268.400 394.028,270.642 393.180,271.951 393.088 C 272.637 393.039,273.199 392.865,273.199 392.700 C 273.200 392.535,273.470 392.400,273.800 392.400 C 274.130 392.400,274.400 392.220,274.400 392.000 C 274.400 391.780,274.940 391.600,275.600 391.600 C 276.260 391.600,276.800 391.421,276.800 391.202 C 276.800 390.981,277.419 390.884,278.200 390.984 C 278.970 391.083,279.600 390.992,279.600 390.782 C 279.600 390.572,279.924 390.400,280.320 390.400 C 280.716 390.400,281.282 390.175,281.579 389.900 C 282.016 389.494,282.058 389.512,281.800 390.000 C 281.542 390.488,281.584 390.506,282.021 390.100 C 282.318 389.825,282.987 389.600,283.509 389.600 C 284.030 389.600,284.729 389.328,285.061 388.996 C 285.393 388.664,285.830 388.495,286.032 388.620 C 286.235 388.745,286.400 388.657,286.400 388.424 C 286.400 388.191,286.820 388.000,287.333 388.000 C 287.847 388.000,288.391 387.875,288.544 387.723 C 288.696 387.571,289.221 387.387,289.710 387.315 C 290.200 387.243,291.171 386.916,291.868 386.589 C 292.566 386.261,293.691 385.882,294.368 385.746 C 295.046 385.611,295.600 385.343,295.600 385.150 C 295.600 384.957,296.042 384.800,296.581 384.800 C 297.481 384.800,298.454 384.497,300.600 383.546 C 301.040 383.351,301.895 383.154,302.500 383.109 C 303.105 383.063,303.600 382.885,303.600 382.713 C 303.600 382.541,304.151 382.400,304.824 382.400 C 305.537 382.400,305.944 382.233,305.800 382.000 C 305.594 381.667,306.387 381.491,307.455 381.634 C 307.596 381.653,307.821 381.492,307.955 381.275 C 308.090 381.059,308.650 380.819,309.200 380.741 C 309.750 380.664,310.300 380.466,310.422 380.302 C 310.545 380.138,311.130 379.964,311.722 379.915 C 312.315 379.866,312.800 379.729,312.800 379.610 C 312.800 379.317,315.801 378.400,316.760 378.400 C 317.185 378.400,317.593 378.222,317.667 378.003 C 317.740 377.785,318.295 377.566,318.900 377.516 C 319.505 377.466,320.000 377.324,320.000 377.200 C 320.000 377.076,320.855 376.743,321.900 376.461 C 322.945 376.178,324.107 375.782,324.483 375.581 C 324.858 375.380,325.938 375.092,326.883 374.942 C 327.827 374.792,329.173 374.348,329.874 373.956 C 330.799 373.438,331.201 373.374,331.342 373.722 C 331.487 374.078,331.545 374.073,331.568 373.700 C 331.586 373.425,331.960 373.200,332.400 373.200 C 332.840 373.200,333.200 373.020,333.200 372.800 C 333.200 372.580,333.905 372.400,334.767 372.400 C 335.628 372.400,336.393 372.222,336.467 372.003 C 336.540 371.785,337.095 371.566,337.700 371.516 C 338.305 371.466,338.800 371.324,338.800 371.200 C 338.800 371.076,339.655 370.729,340.700 370.429 C 341.745 370.129,342.780 369.750,343.000 369.586 C 343.220 369.423,344.443 369.059,345.718 368.777 C 346.993 368.495,348.129 368.115,348.242 367.932 C 348.355 367.750,348.876 367.600,349.400 367.600 C 349.924 367.600,350.464 367.420,350.600 367.200 C 350.736 366.980,351.276 366.800,351.800 366.800 C 352.324 366.800,352.864 366.620,353.000 366.400 C 353.136 366.180,353.515 366.000,353.843 366.000 C 354.171 366.000,355.151 365.656,356.021 365.235 C 356.891 364.815,357.486 364.680,357.343 364.935 C 357.177 365.231,357.279 365.218,357.621 364.900 C 357.918 364.625,358.486 364.400,358.885 364.400 C 359.610 364.400,361.213 363.648,361.610 363.121 C 361.726 362.968,362.570 362.799,363.486 362.745 C 364.403 362.691,365.062 362.501,364.953 362.323 C 364.788 362.057,365.993 361.892,367.055 362.034 C 367.196 362.053,367.431 361.874,367.578 361.636 C 367.725 361.398,368.330 361.164,368.922 361.115 C 369.515 361.066,370.000 360.885,370.000 360.713 C 370.000 360.541,370.371 360.400,370.824 360.400 C 371.277 360.400,371.564 360.265,371.462 360.100 C 371.360 359.935,371.749 359.772,372.326 359.737 C 372.903 359.702,373.441 359.477,373.521 359.237 C 373.601 358.997,374.091 358.800,374.610 358.800 C 375.128 358.800,375.669 358.613,375.810 358.384 C 375.952 358.155,376.393 358.071,376.792 358.197 C 377.190 358.324,377.760 358.196,378.058 357.914 C 378.356 357.631,379.050 357.409,379.600 357.419 C 380.150 357.430,380.698 357.299,380.817 357.129 C 380.937 356.959,381.387 356.753,381.817 356.670 C 382.789 356.484,383.984 356.057,384.895 355.571 C 385.774 355.101,386.110 355.098,385.823 355.563 C 385.700 355.762,386.048 355.717,386.596 355.463 C 387.145 355.208,387.595 354.865,387.597 354.700 C 387.599 354.535,387.791 354.400,388.024 354.400 C 388.257 354.400,388.316 354.625,388.155 354.900 C 387.994 355.175,388.223 355.085,388.664 354.699 C 389.104 354.314,389.585 354.119,389.732 354.266 C 389.880 354.413,390.003 354.278,390.006 353.967 C 390.011 353.500,390.081 353.506,390.400 354.000 C 390.658 354.400,390.790 354.433,390.794 354.100 C 390.797 353.825,391.261 353.600,391.824 353.600 C 392.404 353.600,392.740 353.427,392.600 353.200 C 392.464 352.980,392.723 352.800,393.176 352.800 C 393.629 352.800,394.000 352.620,394.000 352.400 C 394.000 352.180,394.360 352.000,394.800 352.000 C 395.240 352.000,395.600 351.820,395.600 351.600 C 395.600 351.380,395.849 351.200,396.154 351.200 C 396.459 351.200,397.029 350.710,397.422 350.110 C 397.815 349.511,398.444 348.690,398.819 348.287 C 399.982 347.039,399.991 346.477,399.996 272.300 L 400.000 200.000 352.800 200.000 L 305.600 200.000 305.594 212.900 C 305.588 226.254,305.484 227.255,303.842 229.818 C 302.837 231.388,300.787 233.275,299.357 233.949 C 298.720 234.248,297.887 234.652,297.505 234.847 C 293.292 236.990,285.533 233.665,283.085 228.667 L 282.000 226.450 282.000 213.225 L 282.000 200.000 258.600 200.000 L 235.200 200.000 235.200 276.613 " stroke="none" fill="#fb1c5c" fill-rule="evenodd"></path><path id="path3" d="M241.418 0.273 C 240.406 0.554,235.600 5.354,235.600 6.083 C 235.600 6.389,235.422 6.818,235.204 7.036 C 234.942 7.298,234.897 40.289,235.070 103.716 L 235.333 200.000 258.666 200.000 L 282.000 200.000 282.000 186.957 L 282.000 173.914 283.207 171.385 C 286.681 164.105,296.372 162.503,302.124 168.257 C 303.539 169.672,303.912 170.297,305.144 173.319 C 305.453 174.076,305.600 178.569,305.600 187.219 L 305.600 200.000 352.805 200.000 L 400.010 200.000 399.905 138.034 L 399.800 76.067 398.900 75.287 C 398.405 74.857,398.000 74.323,398.000 74.099 C 398.000 73.875,397.505 73.371,396.900 72.979 C 396.295 72.587,395.509 71.936,395.153 71.533 C 394.797 71.130,394.212 70.800,393.853 70.800 C 393.494 70.800,393.200 70.620,393.200 70.400 C 393.200 70.180,392.840 70.000,392.400 70.000 C 391.960 70.000,391.600 69.820,391.600 69.600 C 391.600 69.380,391.240 69.200,390.800 69.200 C 390.360 69.200,390.000 69.020,390.000 68.800 C 390.000 68.580,389.655 68.400,389.233 68.400 C 388.812 68.400,388.407 68.256,388.333 68.080 C 388.260 67.904,385.320 66.355,381.800 64.637 C 378.280 62.919,367.840 57.751,358.600 53.153 C 349.360 48.555,341.590 44.795,341.333 44.797 C 341.077 44.798,340.807 44.658,340.733 44.484 C 340.553 44.057,336.128 42.000,335.389 42.000 C 335.065 42.000,334.800 41.820,334.800 41.600 C 334.800 41.380,334.440 41.200,334.000 41.200 C 333.560 41.200,333.200 41.020,333.200 40.800 C 333.200 40.580,332.840 40.400,332.400 40.400 C 331.960 40.400,331.600 40.220,331.600 40.000 C 331.600 39.780,331.240 39.600,330.800 39.600 C 330.360 39.600,330.000 39.420,330.000 39.200 C 330.000 38.980,329.640 38.800,329.200 38.800 C 328.760 38.800,328.400 38.620,328.400 38.400 C 328.400 38.180,328.040 38.000,327.600 38.000 C 327.160 38.000,326.800 37.820,326.800 37.600 C 326.800 37.380,326.440 37.200,326.000 37.200 C 325.560 37.200,325.200 37.054,325.200 36.875 C 325.200 36.696,324.570 36.302,323.800 36.000 C 323.030 35.698,322.400 35.304,322.400 35.125 C 322.400 34.946,322.040 34.800,321.600 34.800 C 321.160 34.800,320.800 34.620,320.800 34.400 C 320.800 34.180,320.440 34.000,320.000 34.000 C 319.560 34.000,319.200 33.820,319.200 33.600 C 319.200 33.380,318.840 33.200,318.400 33.200 C 317.960 33.200,317.600 33.020,317.600 32.800 C 317.600 32.580,317.240 32.400,316.800 32.400 C 316.360 32.400,316.000 32.220,316.000 32.000 C 316.000 31.780,315.640 31.600,315.200 31.600 C 314.760 31.600,314.400 31.420,314.400 31.200 C 314.400 30.980,314.040 30.800,313.600 30.800 C 313.160 30.800,312.800 30.620,312.800 30.400 C 312.800 30.180,312.440 30.000,312.000 30.000 C 311.560 30.000,311.200 29.820,311.200 29.600 C 311.200 29.380,310.840 29.200,310.400 29.200 C 309.960 29.200,309.600 29.020,309.600 28.800 C 309.600 28.580,309.240 28.400,308.800 28.400 C 308.360 28.400,308.000 28.264,308.000 28.098 C 308.000 27.931,307.415 27.543,306.700 27.235 C 305.985 26.927,304.511 26.253,303.425 25.737 C 302.339 25.222,301.214 24.800,300.925 24.800 C 300.636 24.800,300.400 24.620,300.400 24.400 C 300.400 24.180,300.040 24.000,299.600 24.000 C 299.160 24.000,298.800 23.820,298.800 23.600 C 298.800 23.380,298.440 23.200,298.000 23.200 C 297.560 23.200,297.200 23.020,297.200 22.800 C 297.200 22.580,296.840 22.400,296.400 22.400 C 295.960 22.400,295.600 22.220,295.600 22.000 C 295.600 21.780,295.240 21.600,294.800 21.600 C 294.360 21.600,294.000 21.420,294.000 21.200 C 294.000 20.980,293.640 20.800,293.200 20.800 C 292.760 20.800,292.400 20.620,292.400 20.400 C 292.400 20.180,292.040 20.000,291.600 20.000 C 291.160 20.000,290.799 19.865,290.799 19.700 C 290.798 19.535,289.808 18.950,288.600 18.400 C 287.392 17.850,286.402 17.265,286.401 17.100 C 286.401 16.935,286.040 16.800,285.600 16.800 C 285.160 16.800,284.800 16.620,284.800 16.400 C 284.800 16.180,284.440 16.000,284.000 16.000 C 283.560 16.000,283.200 15.820,283.200 15.600 C 283.200 15.380,282.840 15.200,282.400 15.200 C 281.960 15.200,281.600 15.020,281.600 14.800 C 281.600 14.580,281.240 14.400,280.800 14.400 C 280.360 14.400,280.000 14.220,280.000 14.000 C 280.000 13.780,279.640 13.600,279.200 13.600 C 278.760 13.600,278.400 13.420,278.400 13.200 C 278.400 12.980,278.040 12.800,277.600 12.800 C 277.160 12.800,276.800 12.620,276.800 12.400 C 276.800 12.180,276.557 12.000,276.260 12.000 C 275.963 12.000,274.146 11.190,272.222 10.200 C 270.298 9.210,268.471 8.400,268.162 8.400 C 267.853 8.400,267.600 8.220,267.600 8.000 C 267.600 7.780,267.240 7.600,266.800 7.600 C 266.360 7.600,266.000 7.420,266.000 7.200 C 266.000 6.980,265.640 6.800,265.200 6.800 C 264.760 6.800,264.400 6.620,264.400 6.400 C 264.400 6.180,264.040 6.000,263.600 6.000 C 263.160 6.000,262.800 5.820,262.800 5.600 C 262.800 5.380,262.440 5.200,262.000 5.200 C 261.560 5.200,261.200 5.020,261.200 4.800 C 261.200 4.580,260.840 4.400,260.400 4.400 C 259.960 4.400,259.600 4.220,259.600 4.000 C 259.600 3.780,259.240 3.600,258.800 3.600 C 258.360 3.600,258.000 3.420,258.000 3.200 C 258.000 2.980,257.640 2.800,257.200 2.800 C 256.760 2.800,256.400 2.620,256.400 2.400 C 256.400 2.180,256.040 2.000,255.600 2.000 C 255.160 2.000,254.799 1.865,254.797 1.700 C 254.785 0.543,244.422 -0.563,241.418 0.273 M237.802 397.202 C 238.202 397.644,238.611 397.922,238.712 397.821 C 238.928 397.605,237.788 396.400,237.367 396.400 C 237.207 396.400,237.403 396.761,237.802 397.202 " stroke="none" fill="#fc5c54" fill-rule="evenodd"></path><path id="path4" d="M234.995 135.000 C 234.995 170.860,235.042 185.471,235.100 167.468 C 235.158 149.466,235.158 120.126,235.100 102.268 C 235.042 84.411,234.995 99.140,234.995 135.000 M117.600 140.664 C 117.600 141.378,119.694 142.994,151.681 166.964 C 189.644 195.412,188.000 193.897,188.000 200.440 C 188.000 205.624,186.858 206.971,175.000 215.777 C 170.380 219.207,166.330 222.239,166.000 222.513 C 165.670 222.787,164.770 223.450,164.000 223.986 C 163.230 224.523,162.510 225.069,162.400 225.200 C 162.290 225.331,161.570 225.871,160.800 226.400 C 160.030 226.929,159.310 227.469,159.200 227.600 C 159.090 227.731,158.370 228.271,157.600 228.800 C 156.830 229.329,156.110 229.866,156.000 229.994 C 155.890 230.123,154.090 231.494,152.000 233.041 C 141.278 240.979,135.380 245.389,135.200 245.602 C 135.090 245.732,134.370 246.277,133.600 246.814 C 132.830 247.350,131.930 248.015,131.600 248.292 C 131.270 248.568,130.436 249.201,129.747 249.697 C 124.442 253.518,117.600 258.915,117.600 259.279 C 117.600 259.523,117.915 259.371,118.300 258.942 C 118.685 258.513,119.630 257.729,120.400 257.200 C 121.170 256.671,121.890 256.131,122.000 256.000 C 122.110 255.869,122.830 255.329,123.600 254.800 C 124.370 254.271,125.090 253.731,125.200 253.600 C 125.310 253.469,126.030 252.925,126.800 252.392 C 127.570 251.858,128.380 251.271,128.600 251.087 C 128.916 250.823,141.364 241.507,161.763 226.269 C 162.403 225.791,163.155 225.175,163.435 224.900 C 163.714 224.625,164.136 224.400,164.371 224.400 C 164.607 224.400,164.800 224.259,164.800 224.086 C 164.800 223.914,165.333 223.457,165.985 223.072 C 166.637 222.687,167.402 222.147,167.685 221.873 C 167.968 221.598,168.830 220.938,169.600 220.406 C 170.370 219.874,171.090 219.324,171.200 219.184 C 171.310 219.044,174.280 216.791,177.800 214.177 C 184.428 209.256,186.318 207.546,187.185 205.689 C 187.464 205.090,187.852 204.287,188.047 203.905 C 188.241 203.523,188.400 201.766,188.400 200.001 C 188.400 194.873,186.674 192.148,180.800 188.000 C 180.030 187.456,179.130 186.792,178.800 186.525 C 177.866 185.767,171.683 181.134,169.848 179.817 C 168.942 179.167,167.968 178.408,167.685 178.131 C 167.402 177.854,166.637 177.313,165.985 176.928 C 165.333 176.543,164.800 176.086,164.800 175.914 C 164.800 175.741,164.607 175.600,164.371 175.600 C 164.136 175.600,163.714 175.375,163.435 175.100 C 162.820 174.495,162.604 174.331,152.800 167.015 C 148.510 163.814,144.730 160.968,144.400 160.691 C 144.070 160.415,143.170 159.750,142.400 159.214 C 141.630 158.677,140.910 158.131,140.800 158.000 C 140.690 157.869,139.970 157.329,139.200 156.800 C 138.430 156.271,137.710 155.731,137.600 155.600 C 137.490 155.469,136.770 154.923,136.000 154.386 C 135.230 153.850,134.330 153.189,134.000 152.917 C 133.670 152.644,130.970 150.622,128.000 148.421 C 125.030 146.221,122.420 144.276,122.200 144.100 C 121.980 143.923,121.170 143.342,120.400 142.808 C 119.630 142.275,118.685 141.487,118.300 141.058 C 117.915 140.629,117.600 140.451,117.600 140.664 M289.253 165.632 C 286.318 166.934,284.510 168.654,283.207 171.385 L 282.000 173.914 282.087 187.057 L 282.174 200.200 282.387 187.000 C 282.628 172.038,282.705 171.644,285.991 168.455 C 292.298 162.334,302.345 165.403,304.795 174.200 C 305.108 175.321,305.205 183.476,305.121 201.462 C 305.054 215.576,305.132 226.916,305.294 226.662 C 305.806 225.857,305.662 174.589,305.144 173.319 C 303.912 170.297,303.539 169.672,302.124 168.257 C 298.822 164.954,293.313 163.830,289.253 165.632 M303.800 229.068 C 302.621 231.386,302.619 231.544,303.787 229.881 C 304.374 229.046,304.792 228.177,304.716 227.949 C 304.641 227.722,304.228 228.225,303.800 229.068 M283.914 230.200 C 284.141 230.640,284.838 231.449,285.463 231.999 L 286.600 232.997 285.403 231.599 C 283.507 229.382,283.480 229.358,283.914 230.200 M300.303 232.881 C 299.259 233.573,298.482 234.215,298.575 234.308 C 298.756 234.490,302.400 232.082,302.400 231.781 C 302.400 231.501,302.325 231.541,300.303 232.881 M290.000 234.782 C 290.330 235.005,290.945 235.191,291.367 235.194 C 292.390 235.202,292.071 234.973,290.600 234.644 C 289.724 234.448,289.562 234.485,290.000 234.782 M296.200 234.800 C 295.429 235.131,295.431 235.145,296.276 235.172 C 296.758 235.187,297.264 235.020,297.400 234.800 C 297.692 234.327,297.301 234.327,296.200 234.800 " stroke="none" fill="#848c74" fill-rule="evenodd"></path></g></svg>